<?xml version="1.0" standalone="no"?>
<!DOCTYPE svg PUBLIC "-//W3C//DTD SVG 20010904//EN"
 "http://www.w3.org/TR/2001/REC-SVG-20010904/DTD/svg10.dtd">
<svg version="1.0" xmlns="http://www.w3.org/2000/svg"
 width="100.000000pt" height="100.000000pt" viewBox="0 0 100.000000 100.000000"
 preserveAspectRatio="xMidYMid meet">
<metadata>
Created by potrace 1.11, written by Peter Selinger 2001-2013
</metadata>
<g transform="translate(0.000000,100.000000) scale(0.100000,-0.100000)"
fill="#000000" stroke="none">
<path d="M476 967 c-10 -17 -52 -97 -94 -177 -66 -127 -178 -337 -310 -580
l-41 -74 37 -68 37 -68 396 0 395 0 37 66 37 66 -87 162 c-47 88 -94 176 -104
194 -10 17 -69 128 -130 245 -126 239 -141 267 -149 267 -3 0 -13 -15 -24 -33z"/>
</g>
</svg>
